<svg width="320" height="160" viewBox="0 0 320 160" fill="none" xmlns="http://www.w3.org/2000/svg">
<g clip-path="url(#clip0_2081_158)">
<path d="M288 0H32C14.3269 0 0 14.3269 0 32V128C0 145.673 14.3269 160 32 160H288C305.673 160 320 145.673 320 128V32C320 14.3269 305.673 0 288 0Z" fill="#E5E5E3"/>
<path d="M70.4692 67.929H85.894V85.0544L70.4692 67.929ZM54.1441 77.979H53.9941C53.9941 74.5457 54.9275 72.0123 56.7941 70.379C58.6609 68.7457 61.5358 67.929 65.4192 67.929L85.894 92.7792C85.894 96.0792 85.0028 98.4376 83.2188 99.8544C81.486 101.238 78.6525 101.929 74.7192 101.929L54.1441 77.979ZM54.0692 84.7288L68.9192 101.954H54.0692V84.7288ZM91.2204 63.679H104.645V101.954H91.2204V63.679ZM108.295 81.1288C108.295 79.4623 109.062 78.1873 110.595 77.304C111.962 76.5206 113.72 76.129 115.87 76.129C119.22 76.129 121.495 77.0373 122.695 78.854C123.112 79.4873 123.32 80.2456 123.32 81.1288C123.32 82.812 122.604 84.104 121.17 85.004C119.87 85.8376 118.162 86.2544 116.045 86.2544C112.662 86.2544 110.304 85.304 108.97 83.404C108.52 82.7704 108.295 82.012 108.295 81.1288ZM109.245 89.2288H111.495C117.628 89.2288 121.295 91.304 122.495 95.4544C122.879 96.8208 123.07 98.3872 123.07 100.154V101.954H109.245V89.2288ZM160.521 103.629C160.521 111.512 156.563 115.454 148.646 115.454H147.096V76.454H160.521V103.629ZM128.671 76.454H142.496V101.954H140.246C134.113 101.954 130.455 99.8704 129.271 95.704C128.871 94.3544 128.671 92.796 128.671 91.0288V76.454ZM166.097 67.929H179.547V101.904H166.097V67.929ZM183.847 99.5288C183.847 96.0792 185.847 93.7376 189.847 92.504C191.38 92.0376 193.356 91.804 195.772 91.804H197.747V101.954H183.847V99.5288ZM211.098 69.604C205.581 69.604 202.823 67.879 202.823 64.429C202.823 62.6623 203.481 61.3957 204.798 60.629C206.115 59.8457 208.123 59.454 210.823 59.454C213.523 59.454 215.515 59.8457 216.798 60.629C218.081 61.3957 218.723 62.6706 218.723 64.454C218.723 66.2206 218.123 67.5206 216.923 68.354C215.74 69.1873 213.798 69.604 211.098 69.604ZM204.223 76.479H217.673V101.954H204.223V76.479ZM241.724 76.454H243.974C250.108 76.454 253.766 78.5373 254.949 82.704C255.349 84.0544 255.549 85.612 255.549 87.3792V101.954H241.724V76.454ZM223.699 76.454H237.599V101.954H223.699V76.454ZM260.9 63.679H274.325V101.954H260.9V63.679ZM277.975 81.1288C277.975 79.4623 278.742 78.1873 280.275 77.304C281.642 76.5206 283.4 76.129 285.55 76.129C288.9 76.129 291.175 77.0373 292.375 78.854C292.792 79.4873 293 80.2456 293 81.1288C293 82.812 292.284 84.104 290.85 85.004C289.55 85.8376 287.842 86.2544 285.725 86.2544C282.342 86.2544 279.984 85.304 278.65 83.404C278.2 82.7704 277.975 82.012 277.975 81.1288ZM278.925 89.2288H281.175C287.308 89.2288 290.975 91.304 292.175 95.4544C292.559 96.8208 292.75 98.3872 292.75 100.154V101.954H278.925V89.2288Z" fill="#255773"/>
<path d="M169.573 131.554H165.854V108.71H178.761V111.866H169.573V118.991H178.167V122.132H169.573V131.554ZM185.59 131.554H181.902V107.242H185.59V131.554ZM187.59 114.257H191.59L195.137 124.132C195.293 124.58 195.434 125.022 195.558 125.46C195.694 125.887 195.809 126.31 195.903 126.726C196.007 127.142 196.09 127.559 196.153 127.976H196.246C196.35 127.434 196.496 126.83 196.684 126.163C196.882 125.486 197.1 124.81 197.34 124.132L200.746 114.257H204.699L197.278 133.929C196.85 135.054 196.324 136.012 195.699 136.804C195.085 137.606 194.355 138.21 193.512 138.617C192.668 139.033 191.705 139.242 190.622 139.242C190.1 139.242 189.647 139.21 189.262 139.148C188.877 139.096 188.548 139.038 188.278 138.976V136.038C188.496 136.09 188.772 136.138 189.106 136.179C189.439 136.221 189.783 136.242 190.137 136.242C190.793 136.242 191.361 136.111 191.84 135.851C192.319 135.59 192.726 135.221 193.058 134.742C193.392 134.273 193.668 133.736 193.887 133.132L194.496 131.507L187.59 114.257ZM221.247 113.929C222.789 113.929 224.112 114.246 225.216 114.882C226.32 115.518 227.17 116.418 227.763 117.586C228.357 118.752 228.654 120.148 228.654 121.773V123.742H217.107C217.149 125.418 217.597 126.71 218.45 127.617C219.315 128.522 220.523 128.976 222.075 128.976C223.18 128.976 224.17 128.872 225.044 128.663C225.93 128.445 226.842 128.127 227.778 127.71V130.694C226.914 131.101 226.034 131.398 225.138 131.586C224.242 131.773 223.17 131.866 221.919 131.866C220.222 131.866 218.726 131.538 217.435 130.882C216.154 130.215 215.149 129.226 214.419 127.914C213.701 126.601 213.342 124.97 213.342 123.022C213.342 121.086 213.67 119.439 214.326 118.086C214.982 116.731 215.904 115.7 217.091 114.991C218.279 114.283 219.664 113.929 221.247 113.929ZM221.247 116.694C220.091 116.694 219.154 117.07 218.435 117.82C217.727 118.57 217.31 119.669 217.185 121.117H225.06C225.05 120.252 224.904 119.486 224.623 118.82C224.352 118.153 223.935 117.632 223.373 117.257C222.82 116.882 222.112 116.694 221.247 116.694ZM238.935 113.929C241.123 113.929 242.774 114.414 243.889 115.382C245.014 116.351 245.576 117.862 245.576 119.914V131.554H242.967L242.264 129.101H242.138C241.649 129.726 241.144 130.242 240.623 130.648C240.102 131.054 239.498 131.356 238.81 131.554C238.134 131.762 237.306 131.866 236.326 131.866C235.295 131.866 234.373 131.679 233.561 131.304C232.748 130.918 232.107 130.335 231.638 129.554C231.17 128.773 230.935 127.783 230.935 126.586C230.935 124.804 231.597 123.466 232.92 122.57C234.254 121.674 236.264 121.179 238.951 121.086L241.951 120.976V120.07C241.951 118.872 241.67 118.018 241.107 117.507C240.555 116.997 239.774 116.742 238.764 116.742C237.899 116.742 237.061 116.866 236.248 117.117C235.435 117.366 234.644 117.674 233.873 118.038L232.686 115.445C233.53 114.997 234.488 114.632 235.561 114.351C236.644 114.07 237.769 113.929 238.935 113.929ZM241.935 123.288L239.702 123.366C237.868 123.429 236.582 123.742 235.842 124.304C235.102 124.866 234.733 125.638 234.733 126.617C234.733 127.47 234.988 128.096 235.498 128.491C236.009 128.877 236.68 129.07 237.514 129.07C238.785 129.07 239.837 128.71 240.67 127.991C241.514 127.262 241.935 126.194 241.935 124.788V123.288ZM261.702 126.617C261.702 127.752 261.426 128.71 260.874 129.491C260.322 130.273 259.514 130.866 258.452 131.273C257.4 131.669 256.108 131.866 254.577 131.866C253.369 131.866 252.327 131.778 251.452 131.601C250.587 131.434 249.77 131.174 248.998 130.82V127.648C249.822 128.033 250.743 128.366 251.764 128.648C252.795 128.929 253.77 129.07 254.686 129.07C255.894 129.07 256.764 128.882 257.295 128.507C257.827 128.122 258.093 127.611 258.093 126.976C258.093 126.601 257.983 126.267 257.764 125.976C257.556 125.674 257.16 125.366 256.577 125.054C256.004 124.731 255.16 124.346 254.046 123.898C252.952 123.46 252.03 123.022 251.28 122.586C250.53 122.148 249.963 121.622 249.577 121.007C249.191 120.382 248.998 119.586 248.998 118.617C248.998 117.086 249.603 115.924 250.811 115.132C252.03 114.33 253.639 113.929 255.639 113.929C256.702 113.929 257.702 114.038 258.639 114.257C259.587 114.466 260.514 114.773 261.421 115.179L260.264 117.945C259.483 117.601 258.697 117.32 257.905 117.101C257.124 116.872 256.327 116.757 255.514 116.757C254.566 116.757 253.842 116.903 253.342 117.194C252.853 117.486 252.608 117.903 252.608 118.445C252.608 118.851 252.728 119.194 252.967 119.476C253.207 119.757 253.619 120.038 254.202 120.32C254.795 120.601 255.618 120.95 256.671 121.366C257.702 121.762 258.593 122.179 259.342 122.617C260.103 123.043 260.686 123.57 261.093 124.194C261.498 124.82 261.702 125.627 261.702 126.617ZM268.702 114.257V131.554H265.03V114.257H268.702ZM266.89 107.632C267.453 107.632 267.937 107.783 268.343 108.086C268.76 108.387 268.968 108.908 268.968 109.648C268.968 110.377 268.76 110.898 268.343 111.21C267.937 111.512 267.453 111.663 266.89 111.663C266.306 111.663 265.812 111.512 265.406 111.21C265.01 110.898 264.812 110.377 264.812 109.648C264.812 108.908 265.01 108.387 265.406 108.086C265.812 107.783 266.306 107.632 266.89 107.632ZM277.015 131.554H273.328V107.242H277.015V131.554ZM279.016 114.257H283.016L286.563 124.132C286.719 124.58 286.86 125.022 286.985 125.46C287.12 125.887 287.235 126.31 287.329 126.726C287.433 127.142 287.516 127.559 287.578 127.976H287.673C287.777 127.434 287.922 126.83 288.11 126.163C288.308 125.486 288.526 124.81 288.766 124.132L292.173 114.257H296.126L288.704 133.929C288.277 135.054 287.751 136.012 287.126 136.804C286.511 137.606 285.782 138.21 284.938 138.617C284.094 139.033 283.13 139.242 282.047 139.242C281.526 139.242 281.074 139.21 280.688 139.148C280.302 139.096 279.974 139.038 279.704 138.976V136.038C279.922 136.09 280.198 136.138 280.532 136.179C280.865 136.221 281.209 136.242 281.563 136.242C282.219 136.242 282.787 136.111 283.266 135.851C283.746 135.59 284.152 135.221 284.485 134.742C284.818 134.273 285.094 133.736 285.313 133.132L285.923 131.507L279.016 114.257Z" fill="#51B0BA"/>
<path d="M40.1256 84.3536C31.7255 125.954 106.259 127.954 145.726 117.154C114.526 129.954 36.0471 148.354 24.9259 105.554C14.3658 64.914 54.7923 50.6206 77.7256 51.1539C83.7258 51.1539 46.5872 52.3539 40.1256 84.3536Z" fill="#51B0BA"/>
<path d="M186.526 34.754L182.126 32.754L145.509 36.0443L106.354 30.0725L128.126 41.154L101.726 46.4965L87.3258 41.954H80.9258L91.8202 50.6942L81.893 50.9373C87.493 56.0365 94.293 58.8365 103.613 57.6088L140.087 50.9373L144.916 46.4965L133.877 65.6938L163.326 45.154L190.008 39.2884C199.961 35.7352 186.526 34.754 186.526 34.754Z" fill="#255773"/>
</g>
<defs>
<clipPath id="clip0_2081_158">
<rect width="320" height="160" fill="white"/>
</clipPath>
</defs>
</svg>
