<svg width="240" height="120" viewBox="0 0 240 120" fill="none" xmlns="http://www.w3.org/2000/svg">
<g clip-path="url(#clip0_6_6)">
<path d="M216 0H24C10.7452 0 0 10.7452 0 24V96C0 109.255 10.7452 120 24 120H216C229.255 120 240 109.255 240 96V24C240 10.7452 229.255 0 216 0Z" fill="#E5E5E3"/>
<path d="M52.8524 50.9468H64.421V63.7908L52.8524 50.9468ZM40.6086 58.4843H40.4961C40.4961 55.9093 41.1961 54.0093 42.5961 52.7843C43.9961 51.5593 46.1524 50.9468 49.0649 50.9468L64.421 69.5844C64.421 72.0594 63.7526 73.8282 62.4146 74.8908C61.115 75.9282 58.9898 76.4466 56.0399 76.4466L40.6086 58.4843ZM40.5524 63.5466L51.6899 76.4658H40.5524V63.5466ZM68.4158 47.7593H78.4844V76.4658H68.4158V47.7593ZM81.2216 60.8466C81.2216 59.5968 81.797 58.6405 82.9466 57.978C83.972 57.3905 85.2908 57.0968 86.903 57.0968C89.4158 57.0968 91.1216 57.778 92.0216 59.1405C92.3342 59.6155 92.4908 60.1842 92.4908 60.8466C92.4908 62.109 91.9532 63.078 90.878 63.753C89.903 64.3782 88.622 64.6908 87.0344 64.6908C84.497 64.6908 82.7282 63.978 81.728 62.553C81.3908 62.0778 81.2216 61.509 81.2216 60.8466ZM81.9344 66.9216H83.6216C88.2218 66.9216 90.9716 68.478 91.8716 71.5908C92.1596 72.6156 92.303 73.7904 92.303 75.1158V76.4658H81.9344V66.9216ZM120.391 77.7216C120.391 83.634 117.423 86.5908 111.485 86.5908H110.323V57.3405H120.391V77.7216ZM96.5036 57.3405H106.873V76.4658H105.185C100.585 76.4658 97.8416 74.9028 96.9536 71.778C96.6536 70.7658 96.5036 69.597 96.5036 68.2716V57.3405ZM124.573 50.9468H134.661V76.428H124.573V50.9468ZM137.886 74.6466C137.886 72.0594 139.386 70.3032 142.386 69.378C143.536 69.0282 145.017 68.853 146.83 68.853H148.311V76.4658H137.886V74.6466ZM158.324 52.203C154.186 52.203 152.118 50.9093 152.118 48.3218C152.118 46.9968 152.611 46.0468 153.599 45.4718C154.587 44.8843 156.093 44.5905 158.118 44.5905C160.143 44.5905 161.637 44.8843 162.599 45.4718C163.561 46.0468 164.043 47.003 164.043 48.3405C164.043 49.6655 163.593 50.6405 162.693 51.2655C161.805 51.8905 160.349 52.203 158.324 52.203ZM153.168 57.3593H163.255V76.4658H153.168V57.3593ZM181.294 57.3405H182.981C187.581 57.3405 190.325 58.903 191.212 62.028C191.512 63.0408 191.662 64.209 191.662 65.5344V76.4658H181.294V57.3405ZM167.775 57.3405H178.2V76.4658H167.775V57.3405ZM195.676 47.7593H205.744V76.4658H195.676V47.7593ZM208.482 60.8466C208.482 59.5968 209.057 58.6405 210.207 57.978C211.232 57.3905 212.551 57.0968 214.163 57.0968C216.676 57.0968 218.382 57.778 219.282 59.1405C219.594 59.6155 219.751 60.1842 219.751 60.8466C219.751 62.109 219.213 63.078 218.138 63.753C217.163 64.3782 215.882 64.6908 214.294 64.6908C211.757 64.6908 209.988 63.978 208.988 62.553C208.651 62.0778 208.482 61.509 208.482 60.8466ZM209.194 66.9216H210.882C215.482 66.9216 218.232 68.478 219.132 71.5908C219.42 72.6156 219.563 73.7904 219.563 75.1158V76.4658H209.194V66.9216Z" fill="#255773"/>
<path d="M127.179 98.6658H124.391V81.5328H134.07V83.8998H127.179V89.2434H133.625V91.599H127.179V98.6658ZM139.192 98.6658H136.426V80.4312H139.192V98.6658ZM140.692 85.6926H143.692L146.352 93.099C146.469 93.435 146.575 93.7668 146.669 94.095C146.771 94.4154 146.856 94.7322 146.927 95.0442C147.005 95.3568 147.067 95.6694 147.114 95.982H147.185C147.263 95.5758 147.372 95.1228 147.513 94.6224C147.661 94.1148 147.825 93.6072 148.005 93.099L150.56 85.6926H153.524L147.958 100.447C147.638 101.291 147.243 102.009 146.774 102.603C146.313 103.205 145.766 103.658 145.134 103.963C144.501 104.275 143.778 104.431 142.966 104.431C142.575 104.431 142.235 104.408 141.946 104.361C141.657 104.322 141.411 104.279 141.208 104.232V102.029C141.372 102.068 141.579 102.103 141.829 102.134C142.079 102.166 142.337 102.181 142.602 102.181C143.094 102.181 143.52 102.083 143.88 101.888C144.239 101.693 144.544 101.416 144.794 101.056C145.044 100.705 145.251 100.302 145.415 99.849L145.872 98.6304L140.692 85.6926ZM165.935 85.4466C167.091 85.4466 168.084 85.6848 168.912 86.1618C169.74 86.6382 170.377 87.3138 170.822 88.1892C171.267 89.064 171.49 90.111 171.49 91.3296V92.8062H162.83C162.861 94.0638 163.197 95.0328 163.838 95.7126C164.486 96.3918 165.392 96.732 166.556 96.732C167.385 96.732 168.127 96.654 168.783 96.4974C169.447 96.3336 170.131 96.0954 170.834 95.7828V98.0208C170.186 98.3256 169.525 98.5482 168.854 98.6892C168.182 98.8296 167.377 98.8998 166.439 98.8998C165.166 98.8998 164.045 98.6538 163.076 98.1618C162.115 97.6614 161.361 96.9192 160.814 95.9352C160.275 94.9506 160.006 93.7278 160.006 92.2668C160.006 90.8142 160.252 89.5794 160.744 88.5642C161.236 87.5484 161.928 86.775 162.818 86.2434C163.709 85.7124 164.748 85.4466 165.935 85.4466ZM165.935 87.5208C165.068 87.5208 164.365 87.8022 163.826 88.365C163.295 88.9272 162.982 89.7516 162.888 90.8376H168.795C168.787 90.189 168.678 89.6148 168.467 89.115C168.264 88.6146 167.951 88.224 167.529 87.9426C167.115 87.6618 166.584 87.5208 165.935 87.5208ZM179.201 85.4466C180.842 85.4466 182.081 85.8102 182.916 86.5368C183.76 87.2634 184.182 88.3962 184.182 89.9352V98.6658H182.225L181.698 96.8256H181.604C181.236 97.2942 180.858 97.6812 180.467 97.986C180.077 98.2908 179.624 98.517 179.108 98.6658C178.6 98.8218 177.979 98.8998 177.245 98.8998C176.471 98.8998 175.779 98.7594 175.17 98.478C174.561 98.1888 174.08 97.7514 173.729 97.1658C173.377 96.5796 173.201 95.8374 173.201 94.9392C173.201 93.603 173.697 92.5992 174.69 91.9272C175.69 91.2552 177.198 90.8844 179.213 90.8142L181.463 90.732V90.0522C181.463 89.154 181.252 88.5132 180.83 88.1304C180.416 87.7476 179.831 87.5562 179.073 87.5562C178.424 87.5562 177.795 87.6498 177.186 87.8376C176.576 88.0248 175.983 88.2552 175.404 88.5288L174.514 86.5836C175.147 86.2476 175.866 85.974 176.67 85.7634C177.483 85.5522 178.326 85.4466 179.201 85.4466ZM181.451 92.466L179.776 92.5248C178.401 92.5716 177.436 92.8062 176.881 93.228C176.327 93.6498 176.049 94.2282 176.049 94.9626C176.049 95.6028 176.241 96.072 176.624 96.3684C177.006 96.6576 177.51 96.8022 178.135 96.8022C179.088 96.8022 179.877 96.5328 180.502 95.9934C181.135 95.4468 181.451 94.6458 181.451 93.591V92.466ZM196.276 94.9626C196.276 95.814 196.069 96.5328 195.655 97.1184C195.241 97.7046 194.636 98.1498 193.839 98.4546C193.05 98.7516 192.081 98.8998 190.932 98.8998C190.026 98.8998 189.245 98.8332 188.589 98.7006C187.94 98.5758 187.327 98.3802 186.749 98.115V95.736C187.366 96.0246 188.057 96.2748 188.823 96.486C189.596 96.6966 190.327 96.8022 191.015 96.8022C191.921 96.8022 192.573 96.6618 192.971 96.3804C193.37 96.0912 193.569 95.7084 193.569 95.232C193.569 94.9506 193.487 94.7004 193.323 94.482C193.167 94.2552 192.87 94.0248 192.432 93.7908C192.003 93.5484 191.37 93.2592 190.534 92.9232C189.714 92.595 189.022 92.2668 188.46 91.9392C187.897 91.611 187.472 91.2162 187.182 90.7554C186.893 90.2868 186.749 89.6892 186.749 88.9626C186.749 87.8142 187.202 86.943 188.108 86.349C189.022 85.7478 190.229 85.4466 191.729 85.4466C192.526 85.4466 193.276 85.5288 193.979 85.6926C194.69 85.8492 195.386 86.0796 196.065 86.3844L195.198 88.4586C194.612 88.2006 194.022 87.99 193.428 87.8256C192.843 87.654 192.245 87.5676 191.636 87.5676C190.925 87.5676 190.382 87.6774 190.007 87.8958C189.639 88.1148 189.456 88.4274 189.456 88.8336C189.456 89.1384 189.546 89.3958 189.725 89.607C189.905 89.8176 190.214 90.0288 190.651 90.24C191.096 90.4506 191.714 90.7122 192.503 91.0248C193.276 91.3218 193.944 91.6344 194.507 91.9626C195.077 92.2824 195.515 92.6772 195.819 93.1458C196.124 93.615 196.276 94.2204 196.276 94.9626ZM201.527 85.6926V98.6658H198.773V85.6926H201.527ZM200.167 80.724C200.589 80.724 200.952 80.8374 201.257 81.0642C201.57 81.2904 201.726 81.681 201.726 82.236C201.726 82.7826 201.57 83.1732 201.257 83.4078C200.952 83.634 200.589 83.7474 200.167 83.7474C199.73 83.7474 199.359 83.634 199.054 83.4078C198.757 83.1732 198.609 82.7826 198.609 82.236C198.609 81.681 198.757 81.2904 199.054 81.0642C199.359 80.8374 199.73 80.724 200.167 80.724ZM207.761 98.6658H204.996V80.4312H207.761V98.6658ZM209.262 85.6926H212.262L214.922 93.099C215.039 93.435 215.145 93.7668 215.238 94.095C215.34 94.4154 215.426 94.7322 215.496 95.0442C215.574 95.3568 215.637 95.6694 215.684 95.982H215.754C215.832 95.5758 215.942 95.1228 216.082 94.6224C216.231 94.1148 216.395 93.6072 216.575 93.099L219.129 85.6926H222.094L216.528 100.447C216.207 101.291 215.813 102.009 215.344 102.603C214.883 103.205 214.336 103.658 213.704 103.963C213.071 104.275 212.348 104.431 211.535 104.431C211.145 104.431 210.805 104.408 210.516 104.361C210.227 104.322 209.981 104.279 209.778 104.232V102.029C209.942 102.068 210.149 102.103 210.399 102.134C210.648 102.166 210.906 102.181 211.172 102.181C211.664 102.181 212.09 102.083 212.45 101.888C212.809 101.693 213.114 101.416 213.363 101.056C213.614 100.705 213.821 100.302 213.984 99.849L214.442 98.6304L209.262 85.6926Z" fill="#51B0BA"/>
<path d="M30.094 63.2652C23.7939 94.4652 79.6943 95.9652 109.294 87.8652C85.8941 97.4652 27.0351 111.265 18.6942 79.1652C10.7741 48.6855 41.094 37.9654 58.294 38.3654C62.7941 38.3654 34.9402 39.2654 30.094 63.2652Z" fill="#51B0BA"/>
<path d="M139.894 26.0655L136.594 24.5655L109.132 27.0332L79.7653 22.5544L96.0943 30.8655L76.2943 34.8724L65.4943 31.4655H60.6943L68.8651 38.0206L61.4197 38.203C65.6197 42.0274 70.7197 44.1274 77.7097 43.2066L105.066 38.203L108.687 34.8724L100.408 49.2703L122.494 33.8655L142.506 29.4663C149.971 26.8014 139.894 26.0655 139.894 26.0655Z" fill="#255773"/>
</g>
<defs>
<clipPath id="clip0_6_6">
<rect width="240" height="120" fill="white"/>
</clipPath>
</defs>
</svg>
