<svg width="408" height="208" viewBox="0 0 408 208" fill="none" xmlns="http://www.w3.org/2000/svg">
<g filter="url(#filter0_d_11_85)">
<g clip-path="url(#clip0_11_85)">
<path d="M44 2.5H364C384.711 2.5 401.5 19.2893 401.5 40V160C401.5 180.711 384.711 197.5 364 197.5H44C23.2893 197.5 6.5 180.711 6.5 160V40C6.5 19.2893 23.2893 2.5 44 2.5Z" fill="white" stroke="#51B0BA" stroke-width="5"/>
<path d="M92.087 84.9113H111.368V106.318L92.087 84.9113ZM71.6807 97.4738H71.4932C71.4932 93.1821 72.6599 90.0154 74.9932 87.9738C77.3266 85.9321 80.9203 84.9113 85.7745 84.9113L111.368 115.974C111.368 120.099 110.254 123.047 108.024 124.818C105.858 126.547 102.316 127.411 97.3995 127.411L71.6807 97.4738ZM71.587 105.911L90.1495 127.443H71.587V105.911ZM118.026 79.5988H134.807V127.443H118.026V79.5988ZM139.369 101.411C139.369 99.3279 140.328 97.7342 142.244 96.63C143.953 95.6508 146.151 95.1613 148.838 95.1613C153.026 95.1613 155.869 96.2967 157.369 98.5675C157.89 99.3592 158.151 100.307 158.151 101.411C158.151 103.515 157.255 105.13 155.463 106.255C153.838 107.297 151.703 107.818 149.057 107.818C144.828 107.818 141.88 106.63 140.213 104.255C139.651 103.463 139.369 102.515 139.369 101.411ZM140.557 111.536H143.369C151.036 111.536 155.619 114.13 157.119 119.318C157.599 121.026 157.838 122.984 157.838 125.193V127.443H140.557V111.536ZM204.652 129.536C204.652 139.39 199.704 144.318 189.808 144.318H187.871V95.5675H204.652V129.536ZM164.839 95.5675H182.121V127.443H179.308C171.642 127.443 167.069 124.838 165.589 119.63C165.089 117.943 164.839 115.995 164.839 113.786V95.5675ZM211.622 84.9113H228.434V127.38H211.622V84.9113ZM233.809 124.411C233.809 120.099 236.309 117.172 241.309 115.63C243.226 115.047 245.695 114.755 248.716 114.755H251.184V127.443H233.809V124.411ZM267.873 87.005C260.977 87.005 257.529 84.8488 257.529 80.5363C257.529 78.3279 258.352 76.7446 259.998 75.7863C261.644 74.8071 264.154 74.3175 267.529 74.3175C270.904 74.3175 273.394 74.8071 274.998 75.7863C276.602 76.7446 277.404 78.3383 277.404 80.5675C277.404 82.7758 276.654 84.4008 275.154 85.4425C273.675 86.4842 271.248 87.005 267.873 87.005ZM259.279 95.5988H276.092V127.443H259.279V95.5988ZM306.156 95.5675H308.968C316.635 95.5675 321.208 98.1717 322.687 103.38C323.187 105.068 323.437 107.015 323.437 109.224V127.443H306.156V95.5675ZM283.624 95.5675H300.999V127.443H283.624V95.5675ZM330.126 79.5988H346.907V127.443H330.126V79.5988ZM351.469 101.411C351.469 99.3279 352.428 97.7342 354.344 96.63C356.053 95.6508 358.251 95.1613 360.938 95.1613C365.126 95.1613 367.969 96.2967 369.469 98.5675C369.99 99.3592 370.251 100.307 370.251 101.411C370.251 103.515 369.355 105.13 367.563 106.255C365.938 107.297 363.803 107.818 361.157 107.818C356.928 107.818 353.98 106.63 352.313 104.255C351.751 103.463 351.469 102.515 351.469 101.411ZM352.657 111.536H355.469C363.136 111.536 367.719 114.13 369.219 119.318C369.699 121.026 369.938 122.984 369.938 125.193V127.443H352.657V111.536Z" fill="#255773"/>
<path d="M215.966 164.443H211.318V135.888H227.451V139.833H215.966V148.739H226.709V152.665H215.966V164.443ZM235.987 164.443H231.377V134.052H235.987V164.443ZM238.487 142.821H243.487L247.921 155.165C248.116 155.725 248.292 156.278 248.448 156.825C248.618 157.359 248.761 157.887 248.878 158.407C249.008 158.928 249.112 159.449 249.191 159.97H249.308C249.438 159.293 249.62 158.538 249.855 157.704C250.102 156.858 250.375 156.012 250.675 155.165L254.933 142.821H259.874L250.597 167.411C250.063 168.818 249.405 170.015 248.624 171.005C247.856 172.008 246.944 172.763 245.89 173.271C244.835 173.791 243.631 174.052 242.277 174.052C241.625 174.052 241.059 174.013 240.577 173.935C240.096 173.87 239.685 173.798 239.347 173.72V170.048C239.62 170.113 239.965 170.172 240.382 170.224C240.799 170.276 241.228 170.302 241.671 170.302C242.491 170.302 243.201 170.139 243.8 169.814C244.399 169.488 244.907 169.026 245.323 168.427C245.74 167.841 246.085 167.17 246.359 166.415L247.12 164.384L238.487 142.821ZM280.559 142.411C282.486 142.411 284.14 142.808 285.52 143.603C286.9 144.397 287.962 145.523 288.704 146.982C289.446 148.44 289.817 150.185 289.817 152.216V154.677H275.384C275.436 156.773 275.996 158.388 277.063 159.521C278.144 160.653 279.654 161.22 281.594 161.22C282.975 161.22 284.212 161.09 285.305 160.829C286.412 160.556 287.552 160.159 288.723 159.638V163.368C287.643 163.876 286.542 164.247 285.423 164.482C284.303 164.716 282.962 164.833 281.399 164.833C279.277 164.833 277.408 164.423 275.794 163.603C274.192 162.769 272.936 161.532 272.024 159.892C271.126 158.251 270.677 156.213 270.677 153.778C270.677 151.357 271.087 149.299 271.907 147.607C272.727 145.914 273.88 144.625 275.364 143.739C276.848 142.854 278.58 142.411 280.559 142.411ZM280.559 145.868C279.114 145.868 277.942 146.337 277.044 147.275C276.158 148.212 275.637 149.586 275.481 151.396H285.325C285.312 150.315 285.13 149.358 284.778 148.525C284.44 147.691 283.919 147.04 283.216 146.571C282.525 146.103 281.64 145.868 280.559 145.868ZM302.669 142.411C305.404 142.411 307.468 143.017 308.861 144.228C310.267 145.439 310.97 147.327 310.97 149.892V164.443H307.709L306.83 161.376H306.673C306.061 162.157 305.43 162.802 304.779 163.31C304.128 163.818 303.373 164.195 302.513 164.443C301.667 164.703 300.632 164.833 299.408 164.833C298.119 164.833 296.966 164.599 295.951 164.13C294.935 163.648 294.134 162.919 293.548 161.943C292.962 160.966 292.669 159.729 292.669 158.232C292.669 156.005 293.496 154.332 295.15 153.212C296.817 152.092 299.33 151.474 302.689 151.357L306.439 151.22V150.087C306.439 148.59 306.087 147.522 305.384 146.884C304.694 146.246 303.718 145.927 302.455 145.927C301.374 145.927 300.326 146.083 299.31 146.396C298.294 146.708 297.305 147.092 296.341 147.548L294.857 144.306C295.912 143.746 297.11 143.29 298.451 142.939C299.805 142.587 301.211 142.411 302.669 142.411ZM306.419 154.11L303.627 154.208C301.335 154.286 299.727 154.677 298.802 155.38C297.878 156.083 297.416 157.047 297.416 158.271C297.416 159.338 297.735 160.12 298.373 160.614C299.011 161.096 299.85 161.337 300.892 161.337C302.481 161.337 303.796 160.888 304.837 159.989C305.892 159.078 306.419 157.743 306.419 155.985V154.11ZM331.127 158.271C331.127 159.69 330.782 160.888 330.092 161.864C329.402 162.841 328.393 163.583 327.065 164.091C325.75 164.586 324.135 164.833 322.221 164.833C320.711 164.833 319.409 164.722 318.315 164.501C317.234 164.293 316.212 163.967 315.248 163.525V159.56C316.277 160.041 317.429 160.458 318.705 160.81C319.994 161.161 321.212 161.337 322.358 161.337C323.868 161.337 324.955 161.103 325.619 160.634C326.284 160.152 326.616 159.514 326.616 158.72C326.616 158.251 326.479 157.834 326.205 157.47C325.945 157.092 325.45 156.708 324.721 156.318C324.005 155.914 322.95 155.432 321.557 154.872C320.19 154.325 319.037 153.778 318.1 153.232C317.162 152.685 316.453 152.027 315.971 151.259C315.489 150.478 315.248 149.482 315.248 148.271C315.248 146.357 316.004 144.905 317.514 143.915C319.037 142.913 321.049 142.411 323.549 142.411C324.877 142.411 326.127 142.548 327.299 142.821C328.484 143.082 329.643 143.466 330.776 143.974L329.33 147.431C328.354 147.001 327.371 146.65 326.381 146.376C325.405 146.09 324.409 145.946 323.393 145.946C322.208 145.946 321.303 146.129 320.678 146.493C320.066 146.858 319.76 147.379 319.76 148.056C319.76 148.564 319.91 148.993 320.209 149.345C320.509 149.696 321.023 150.048 321.752 150.4C322.494 150.751 323.523 151.187 324.838 151.708C326.127 152.203 327.241 152.724 328.178 153.271C329.129 153.804 329.858 154.462 330.366 155.243C330.873 156.025 331.127 157.034 331.127 158.271ZM339.878 142.821V164.443H335.288V142.821H339.878ZM337.612 134.54C338.316 134.54 338.921 134.729 339.429 135.107C339.95 135.484 340.21 136.135 340.21 137.06C340.21 137.971 339.95 138.622 339.429 139.013C338.921 139.39 338.316 139.579 337.612 139.579C336.883 139.579 336.265 139.39 335.757 139.013C335.262 138.622 335.015 137.971 335.015 137.06C335.015 136.135 335.262 135.484 335.757 135.107C336.265 134.729 336.883 134.54 337.612 134.54ZM350.269 164.443H345.66V134.052H350.269V164.443ZM352.77 142.821H357.77L362.204 155.165C362.399 155.725 362.575 156.278 362.731 156.825C362.9 157.359 363.044 157.887 363.161 158.407C363.291 158.928 363.395 159.449 363.473 159.97H363.591C363.721 159.293 363.903 158.538 364.137 157.704C364.385 156.858 364.658 156.012 364.958 155.165L369.216 142.821H374.157L364.88 167.411C364.346 168.818 363.688 170.015 362.907 171.005C362.139 172.008 361.227 172.763 360.173 173.271C359.118 173.791 357.913 174.052 356.559 174.052C355.908 174.052 355.342 174.013 354.86 173.935C354.378 173.87 353.968 173.798 353.63 173.72V170.048C353.903 170.113 354.248 170.172 354.665 170.224C355.081 170.276 355.511 170.302 355.954 170.302C356.774 170.302 357.484 170.139 358.083 169.814C358.682 169.488 359.19 169.026 359.606 168.427C360.023 167.841 360.368 167.17 360.641 166.415L361.403 164.384L352.77 142.821Z" fill="#51B0BA"/>
<path d="M54.1568 105.442C43.6567 157.442 136.824 159.942 186.157 146.442C147.157 162.442 49.0587 185.442 35.1571 131.942C21.957 81.1425 72.4901 63.2757 101.157 63.9424C108.657 63.9424 62.2338 65.4424 54.1568 105.442Z" fill="#51B0BA"/>
<path d="M237.157 43.4425L231.657 40.9425L185.886 45.0553L136.942 37.5906L164.157 51.4425L131.157 58.1206L113.157 52.4425H105.157L118.775 63.3677L106.366 63.6716C113.366 70.0456 121.866 73.5456 133.516 72.0109L179.109 63.6716L185.145 58.1206L171.346 82.1172L208.157 56.4425L241.51 49.1104C253.951 44.6689 237.157 43.4425 237.157 43.4425Z" fill="#255773"/>
</g>
</g>
<defs>
<filter id="filter0_d_11_85" x="0" y="0" width="408" height="208" filterUnits="userSpaceOnUse" color-interpolation-filters="sRGB">
<feFlood flood-opacity="0" result="BackgroundImageFix"/>
<feColorMatrix in="SourceAlpha" type="matrix" values="0 0 0 0 0 0 0 0 0 0 0 0 0 0 0 0 0 0 127 0" result="hardAlpha"/>
<feOffset dy="4"/>
<feGaussianBlur stdDeviation="2"/>
<feComposite in2="hardAlpha" operator="out"/>
<feColorMatrix type="matrix" values="0 0 0 0 0 0 0 0 0 0 0 0 0 0 0 0 0 0 0.25 0"/>
<feBlend mode="normal" in2="BackgroundImageFix" result="effect1_dropShadow_11_85"/>
<feBlend mode="normal" in="SourceGraphic" in2="effect1_dropShadow_11_85" result="shape"/>
</filter>
<clipPath id="clip0_11_85">
<rect width="400" height="200" fill="white" transform="translate(4)"/>
</clipPath>
</defs>
</svg>
