<svg width="240" height="120" viewBox="0 0 240 120" fill="none" xmlns="http://www.w3.org/2000/svg">
<g clip-path="url(#clip0_2057_236)">
<path d="M216 0H24C10.7452 0 0 10.7452 0 24V96C0 109.255 10.7452 120 24 120H216C229.255 120 240 109.255 240 96V24C240 10.7452 229.255 0 216 0Z" fill="#E5E5E3"/>
<path d="M52.8521 50.9466H64.4207V63.7906L52.8521 50.9466ZM40.6083 58.4841H40.4958C40.4958 55.9091 41.1959 54.0091 42.5958 52.7841C43.9959 51.5591 46.1521 50.9466 49.0646 50.9466L64.4207 69.5842C64.4207 72.0592 63.7523 73.828 62.4143 74.8906C61.1147 75.928 58.9896 76.4464 56.0396 76.4464L40.6083 58.4841ZM40.5521 63.5464L51.6896 76.4656H40.5521V63.5464ZM68.4155 47.7591H78.4841V76.4656H68.4155V47.7591ZM81.2213 60.8464C81.2213 59.5966 81.7967 58.6404 82.9463 57.9778C83.9717 57.3903 85.2905 57.0966 86.9027 57.0966C89.4155 57.0966 91.1213 57.7779 92.0213 59.1403C92.3339 59.6154 92.4905 60.184 92.4905 60.8464C92.4905 62.1088 91.9529 63.0778 90.8777 63.7528C89.9027 64.378 88.6217 64.6906 87.0341 64.6906C84.4967 64.6906 82.7279 63.9778 81.7277 62.5528C81.3905 62.0776 81.2213 61.5088 81.2213 60.8464ZM81.9341 66.9214H83.6213C88.2215 66.9214 90.9713 68.4778 91.8713 71.5906C92.1593 72.6154 92.3027 73.7902 92.3027 75.1156V76.4656H81.9341V66.9214ZM120.391 77.7214C120.391 83.6338 117.422 86.5906 111.485 86.5906H110.323V57.3403H120.391V77.7214ZM96.5033 57.3403H106.873V76.4656H105.185C100.585 76.4656 97.8413 74.9026 96.9533 71.7778C96.6533 70.7656 96.5033 69.5968 96.5033 68.2714V57.3403ZM124.573 50.9466H134.66V76.4278H124.573V50.9466ZM137.885 74.6464C137.885 72.0592 139.385 70.303 142.385 69.3778C143.536 69.028 145.017 68.8528 146.83 68.8528H148.31V76.4656H137.885V74.6464ZM158.324 52.2028C154.186 52.2028 152.117 50.9091 152.117 48.3216C152.117 46.9966 152.611 46.0466 153.599 45.4716C154.586 44.8841 156.092 44.5903 158.117 44.5903C160.142 44.5903 161.636 44.8841 162.599 45.4716C163.561 46.0466 164.042 47.0028 164.042 48.3403C164.042 49.6653 163.592 50.6403 162.692 51.2653C161.805 51.8904 160.349 52.2028 158.324 52.2028ZM153.167 57.3591H163.255V76.4656H153.167V57.3591ZM181.294 57.3403H182.981C187.581 57.3403 190.325 58.9029 191.212 62.0278C191.512 63.0406 191.662 64.2088 191.662 65.5342V76.4656H181.294V57.3403ZM167.774 57.3403H178.199V76.4656H167.774V57.3403ZM195.676 47.7591H205.744V76.4656H195.676V47.7591ZM208.481 60.8464C208.481 59.5966 209.057 58.6404 210.206 57.9778C211.232 57.3903 212.551 57.0966 214.163 57.0966C216.676 57.0966 218.381 57.7779 219.281 59.1403C219.594 59.6154 219.751 60.184 219.751 60.8464C219.751 62.1088 219.213 63.0778 218.138 63.7528C217.163 64.378 215.882 64.6906 214.294 64.6906C211.757 64.6906 209.988 63.9778 208.988 62.5528C208.651 62.0776 208.481 61.5088 208.481 60.8464ZM209.194 66.9214H210.881C215.482 66.9214 218.231 68.4778 219.131 71.5906C219.419 72.6154 219.563 73.7902 219.563 75.1156V76.4656H209.194V66.9214Z" fill="#255773"/>
<path d="M127.18 98.6657H124.391V81.5328H134.071V83.8997H127.18V89.2434H133.625V91.5989H127.18V98.6657ZM139.192 98.6657H136.426V80.4312H139.192V98.6657ZM140.692 85.6926H143.692L146.353 93.0989C146.47 93.4349 146.575 93.7667 146.669 94.0949C146.771 94.4153 146.857 94.7322 146.927 95.0442C147.005 95.3568 147.067 95.6694 147.115 95.982H147.185C147.263 95.5758 147.372 95.1227 147.513 94.6223C147.661 94.1147 147.825 93.6071 148.005 93.0989L150.56 85.6926H153.524L147.958 100.447C147.638 101.291 147.243 102.009 146.774 102.603C146.314 103.205 145.766 103.658 145.134 103.963C144.501 104.275 143.779 104.431 142.966 104.431C142.575 104.431 142.235 104.408 141.946 104.361C141.658 104.322 141.411 104.279 141.208 104.232V102.029C141.372 102.068 141.579 102.103 141.829 102.134C142.079 102.166 142.337 102.181 142.603 102.181C143.095 102.181 143.521 102.083 143.88 101.888C144.239 101.693 144.544 101.416 144.794 101.056C145.044 100.705 145.251 100.302 145.415 99.8489L145.872 98.6304L140.692 85.6926ZM165.935 85.4465C167.092 85.4465 168.084 85.6847 168.912 86.1617C169.74 86.6381 170.377 87.3137 170.822 88.1891C171.268 89.0639 171.49 90.111 171.49 91.3296V92.8062H162.83C162.862 94.0638 163.198 95.0327 163.838 95.7125C164.486 96.3917 165.392 96.732 166.556 96.732C167.385 96.732 168.127 96.6539 168.783 96.4973C169.447 96.3335 170.131 96.0954 170.834 95.7828V98.0207C170.186 98.3255 169.525 98.5481 168.854 98.6891C168.182 98.8295 167.377 98.8997 166.439 98.8997C165.166 98.8997 164.045 98.6537 163.076 98.1617C162.115 97.6613 161.362 96.9192 160.814 95.9352C160.276 94.9506 160.006 93.7278 160.006 92.2668C160.006 90.8142 160.252 89.5793 160.744 88.5641C161.236 87.5483 161.928 86.775 162.818 86.2434C163.709 85.7124 164.748 85.4465 165.935 85.4465ZM165.935 87.5207C165.068 87.5207 164.365 87.8021 163.826 88.3649C163.295 88.9271 162.982 89.7515 162.889 90.8375H168.795C168.787 90.1889 168.678 89.6147 168.467 89.1149C168.264 88.6145 167.951 88.224 167.53 87.9426C167.115 87.6618 166.584 87.5207 165.935 87.5207ZM179.201 85.4465C180.842 85.4465 182.081 85.8101 182.917 86.5367C183.76 87.2633 184.182 88.3962 184.182 89.9352V98.6657H182.225L181.698 96.8256H181.604C181.237 97.2942 180.858 97.6812 180.467 97.986C180.077 98.2908 179.624 98.5169 179.108 98.6657C178.6 98.8217 177.979 98.8997 177.245 98.8997C176.471 98.8997 175.78 98.7594 175.171 98.478C174.561 98.1888 174.08 97.7513 173.729 97.1657C173.377 96.5795 173.201 95.8373 173.201 94.9391C173.201 93.6029 173.698 92.5992 174.69 91.9272C175.69 91.2552 177.198 90.8843 179.213 90.8141L181.463 90.732V90.0522C181.463 89.154 181.252 88.5132 180.83 88.1304C180.416 87.7476 179.831 87.5562 179.073 87.5562C178.424 87.5562 177.796 87.6497 177.186 87.8375C176.576 88.0247 175.983 88.2552 175.405 88.5288L174.514 86.5836C175.147 86.2476 175.866 85.9739 176.671 85.7633C177.483 85.5521 178.327 85.4465 179.201 85.4465ZM181.451 92.466L179.776 92.5247C178.401 92.5715 177.436 92.8062 176.881 93.228C176.327 93.6498 176.05 94.2281 176.05 94.9625C176.05 95.6027 176.241 96.072 176.624 96.3684C177.007 96.6576 177.51 96.8022 178.135 96.8022C179.089 96.8022 179.878 96.5328 180.502 95.9934C181.135 95.4468 181.451 94.6458 181.451 93.591V92.466ZM196.276 94.9625C196.276 95.8139 196.069 96.5328 195.655 97.1184C195.241 97.7046 194.636 98.1498 193.839 98.4546C193.05 98.7516 192.081 98.8997 190.933 98.8997C190.027 98.8997 189.245 98.8332 188.589 98.7006C187.94 98.5758 187.327 98.3801 186.749 98.1149V95.736C187.366 96.0246 188.057 96.2748 188.823 96.486C189.596 96.6966 190.327 96.8022 191.015 96.8022C191.921 96.8022 192.573 96.6618 192.971 96.3804C193.37 96.0912 193.57 95.7084 193.57 95.232C193.57 94.9506 193.487 94.7004 193.323 94.482C193.167 94.2552 192.87 94.0247 192.433 93.7907C192.003 93.5483 191.37 93.2591 190.534 92.9231C189.714 92.5949 189.022 92.2667 188.46 91.9391C187.897 91.6109 187.472 91.2162 187.183 90.7554C186.893 90.2868 186.749 89.6891 186.749 88.9625C186.749 87.8141 187.202 86.9429 188.108 86.3489C189.022 85.7477 190.229 85.4465 191.729 85.4465C192.526 85.4465 193.276 85.5288 193.979 85.6926C194.69 85.8492 195.386 86.0796 196.066 86.3844L195.198 88.4586C194.612 88.2006 194.023 87.99 193.429 87.8256C192.843 87.654 192.245 87.5676 191.636 87.5676C190.925 87.5676 190.382 87.6773 190.007 87.8957C189.64 88.1147 189.456 88.4274 189.456 88.8336C189.456 89.1384 189.546 89.3958 189.725 89.607C189.905 89.8176 190.214 90.0287 190.651 90.2399C191.096 90.4505 191.714 90.7121 192.503 91.0247C193.276 91.3217 193.945 91.6343 194.507 91.9625C195.077 92.2823 195.515 92.6771 195.82 93.1457C196.124 93.6149 196.276 94.2203 196.276 94.9625ZM201.527 85.6926V98.6657H198.773V85.6926H201.527ZM200.167 80.7239C200.59 80.7239 200.953 80.8373 201.257 81.0641C201.57 81.2903 201.726 81.6809 201.726 82.2359C201.726 82.7825 201.57 83.1732 201.257 83.4078C200.953 83.634 200.59 83.7473 200.167 83.7473C199.73 83.7473 199.359 83.634 199.054 83.4078C198.757 83.1732 198.609 82.7825 198.609 82.2359C198.609 81.6809 198.757 81.2903 199.054 81.0641C199.359 80.8373 199.73 80.7239 200.167 80.7239ZM207.761 98.6657H204.996V80.4312H207.761V98.6657ZM209.262 85.6926H212.262L214.922 93.0989C215.039 93.4349 215.145 93.7667 215.239 94.0949C215.34 94.4153 215.426 94.7322 215.497 95.0442C215.575 95.3568 215.637 95.6694 215.684 95.982H215.755C215.833 95.5758 215.942 95.1227 216.082 94.6223C216.231 94.1147 216.395 93.6071 216.575 93.0989L219.13 85.6926H222.094L216.528 100.447C216.208 101.291 215.813 102.009 215.344 102.603C214.883 103.205 214.336 103.658 213.704 103.963C213.071 104.275 212.348 104.431 211.535 104.431C211.145 104.431 210.805 104.408 210.516 104.361C210.227 104.322 209.981 104.279 209.778 104.232V102.029C209.942 102.068 210.149 102.103 210.399 102.134C210.649 102.166 210.907 102.181 211.172 102.181C211.664 102.181 212.09 102.083 212.45 101.888C212.809 101.693 213.114 101.416 213.364 101.056C213.614 100.705 213.821 100.302 213.985 99.8489L214.442 98.6304L209.262 85.6926Z" fill="#51B0BA"/>
<path d="M30.094 63.265C23.7939 94.465 79.6943 95.965 109.294 87.865C85.8941 97.465 27.0351 111.265 18.6942 79.165C10.7741 48.6853 41.094 37.9652 58.294 38.3652C62.7941 38.3652 34.9402 39.2652 30.094 63.265Z" fill="#51B0BA"/>
<path d="M29.6941 62.9105C23.394 94.1105 79.2944 95.6105 108.894 87.5105C85.4942 97.1105 26.6352 110.911 18.2943 78.8105C10.3742 48.3308 40.694 37.6107 57.8941 38.0107C62.3942 38.0107 34.5403 38.9107 29.6941 62.9105Z" fill="#51B0BA"/>
<path d="M139.894 26.0653L136.594 24.5653L109.131 27.033L79.7651 22.5542L96.0941 30.8653L76.2941 34.8722L65.4941 31.4653H60.6941L68.8649 38.0205L61.4195 38.2028C65.6195 42.0272 70.7195 44.1272 77.7095 43.2064L105.065 38.2028L108.687 34.8722L100.407 49.2702L122.494 33.8653L142.506 29.4661C149.97 26.8012 139.894 26.0653 139.894 26.0653Z" fill="#255773"/>
</g>
<defs>
<clipPath id="clip0_2057_236">
<rect width="240" height="120" fill="white"/>
</clipPath>
</defs>
</svg>
